{"asset":{"version":"2.0","generator":"THREE.GLTFExporter"},"scenes":[{"nodes":[0],"name":"AuxScene"}],"scene":0,"nodes":[{"mesh":0}],"bufferViews":[{"buffer":0,"byteOffset":0,"byteLength":125748,"target":34962,"byteStride":12},{"buffer":0,"byteOffset":125748,"byteLength":125748,"target":34962,"byteStride":12}],"buffers":[{"byteLength":251496,"uri":"data:application/octet-stream;base64,"}],"accessors":[{"bufferView":0,"componentType":5126,"count":10479,"max":[100.61190795898438,26.595970153808594,100.61190795898438],"min":[-100.68809509277344,0.39597299695014954,-114.48809814453125],"type":"VEC3"},{"bufferView":1,"componentType":5126,"count":10479,"max":[0.9645547866821289,1,0.9937121272087097],"min":[-0.8846627473831177,0.08137217909097672,-0.969883143901825],"type":"VEC3"}],"materials":[{"pbrMetallicRoughness":{"baseColorFactor":[0.5019607843137255,0.5019607843137255,0.5019607843137255,1],"metallicFactor":0,"roughnessFactor":1}}],"meshes":[{"primitives":[{"mode":4,"attributes":{"POSITION":0,"NORMAL":1},"material":0}]}]}